<svg id="Layer_1" data-name="Layer 1" xmlns="http://www.w3.org/2000/svg" viewBox="0 0 100 100"><defs><style>.cls-1{fill:#7de5ed;}</style></defs><polygon class="cls-1" points="15.85 93.06 26.19 71.23 25.6 61.55 18.05 66.15 5 93.06 15.85 93.06"/><path class="cls-1" d="M39.38,22.43,46.55,7.21l8.05-.27,6.87,13.22C54.07,18.24,49.7,17.8,39.38,22.43Z"/><polygon class="cls-1" points="85.31 93.06 72.45 66.39 81.18 64.15 95 93.06 85.31 93.06"/><path class="cls-1" d="M13.56,50.22c-.6-.45,5.28-13.77,18.77-22.42a44.35,44.35,0,0,1,17.58-6.73c10.9-1.47,20.26,1.86,20.18,2.48s-6.31-.87-15.46.35A63.43,63.43,0,0,0,37.28,29C21.16,36.58,14.19,50.69,13.56,50.22Z"/><path class="cls-1" d="M74.87,33.48c-1.39.51-2,1.81-2.65,2.91a18.09,18.09,0,0,1-6.06,5.35,57,57,0,0,1-21.25,7.57c-2.9.43-5.85.66-8.77,1C39.19,44.48,45.2,31,45.2,31l-1.28-2.17L32.86,34.94l-9,19.17a6.37,6.37,0,0,0-3,4.46c2.71-2.53,7-3.67,11.19-4s8.41-.15,12.6-.49a40.83,40.83,0,0,0,19.25-6.56,28,28,0,0,0,11.08-14Z"/><path class="cls-1" d="M76.65,26.91c.5.37,1.4.47,1.53,1.05.07.34.07.92-.77,1a1.86,1.86,0,0,1-1.86-.77C75.2,27.58,76.59,27.53,76.65,26.91Z"/><path class="cls-1" d="M53.92,26.46c.5.38,1.41.47,1.53,1.06.07.34.08.91-.76,1a1.85,1.85,0,0,1-1.87-.76C52.47,27.14,53.86,27.08,53.92,26.46Z"/><path class="cls-1" d="M58,36.1c.5.37,1.41.47,1.53,1,.07.34.08.91-.76,1a1.85,1.85,0,0,1-1.87-.76C56.54,36.77,57.93,36.71,58,36.1Z"/><path class="cls-1" d="M49,30.29c.5.38,1.41.48,1.53,1.06.07.34.08.91-.76,1a1.83,1.83,0,0,1-1.86-.76C47.57,31,49,30.91,49,30.29Z"/><path class="cls-1" d="M53.37,37.14c.5.37,1.4.47,1.52,1,.08.34.08.92-.76,1a1.85,1.85,0,0,1-1.86-.77C51.92,37.81,53.31,37.76,53.37,37.14Z"/><path class="cls-1" d="M56.64,30.29c.49.38,1.4.48,1.52,1.06.07.34.08.91-.76,1a1.83,1.83,0,0,1-1.86-.76C55.18,31,56.58,30.91,56.64,30.29Z"/><path class="cls-1" d="M81.45,30.7c1.49.77-.24,1.4-.29,2.15C81,32.16,79,32.3,80,31.13A1.2,1.2,0,0,1,81.45,30.7Z"/><path class="cls-1" d="M71.05,33.47c-.41-.42-1.16-.27-1.66-.46a3.15,3.15,0,0,1,1-1.67,5.39,5.39,0,0,1,1.32.95C72.1,32.8,71.22,33.05,71.05,33.47Z"/><path class="cls-1" d="M64.59,29c-.42-.43-1.16-.27-1.67-.47a3.19,3.19,0,0,1,1-1.67,5.67,5.67,0,0,1,1.32.95C65.64,28.34,64.75,28.59,64.59,29Z"/><path class="cls-1" d="M84.51,21.76c.13-.19.1-.3.41-.2,1,.33.52.92.36,1.46C84.8,22.67,84.08,22.44,84.51,21.76Z"/><path class="cls-1" d="M85.58,29.26c-.65.06-.57-.41-.56-.65,0-.71.75-.45,1.37-.52C86.15,28.55,86.53,29.18,85.58,29.26Z"/><path class="cls-1" d="M63.33,36.68c-.65.06-.57-.42-.56-.66,0-.7.75-.44,1.37-.52C63.9,36,64.28,36.6,63.33,36.68Z"/><path class="cls-1" d="M82.83,26.53c-.33-.13-.8,0-1.12-.39.15-.25.73-.38.69-.77.35.15.85.24,1,.47C83.76,26.26,82.92,26.23,82.83,26.53Z"/><path class="cls-1" d="M78.42,38.76c-.33-.13-.8,0-1.11-.39.15-.25.72-.38.68-.77.36.15.86.24,1,.47C79.36,38.49,78.52,38.46,78.42,38.76Z"/><path class="cls-1" d="M54.34,35.47c-.33-.14-.8,0-1.12-.4.15-.24.73-.37.69-.77.35.16.85.24,1,.47C55.28,35.2,54.44,35.17,54.34,35.47Z"/><path class="cls-1" d="M71.41,28.19c.23,0,.51.23.38.4-.31.39-.8.4-1.6.19C70.7,28.52,70.8,28.1,71.41,28.19Z"/><path class="cls-1" d="M63.86,32c.22,0,.5.23.37.4-.3.39-.79.4-1.59.19C63.15,32.35,63.25,31.93,63.86,32Z"/><path class="cls-1" d="M89.66,21.68c-.31.12-.52-.14-.77-.26.24-.23.65-.36.58-.72a3.35,3.35,0,0,1,.55.39C90.31,21.42,89.92,21.57,89.66,21.68Z"/><path class="cls-1" d="M19.76,61.93c1.4-.5,8.31-3.38,9.55-2.67S31,61.54,30,62.44l1.92-.67a2.42,2.42,0,0,1-.46,2.67l2.87-2.17a3.67,3.67,0,0,1-.59,3.35,4.21,4.21,0,0,0,2.41-2.16A2.24,2.24,0,0,1,36.6,66a1.32,1.32,0,0,1,1.59-.7.9.9,0,0,1,.61,1.35l1.55-1.83a2.94,2.94,0,0,1,.71,2.2,8.35,8.35,0,0,1,1.54-2.44l2.09,4.64a10,10,0,0,1-.1-5.2l3.77,5.86a13.46,13.46,0,0,1-1.22-6.39,62.89,62.89,0,0,0,8.41,8.74l-5.84-9.41a39.28,39.28,0,0,0,11.64,8.25,20.57,20.57,0,0,1-8.85-9.39A26.22,26.22,0,0,0,65.3,68.5a28.34,28.34,0,0,1-8.4-6c-.46-.49-.86-1.27-.23-1.63a24.11,24.11,0,0,0,12.14,5.34,25.8,25.8,0,0,1-9.06-6,35.7,35.7,0,0,0,14.31,3.9,21,21,0,0,1-11.53-5.47,29.94,29.94,0,0,0,15.29,3.2A28.43,28.43,0,0,1,66.35,58a36.06,36.06,0,0,0,19.31.87,28.94,28.94,0,0,1-13.13-1.13,38.77,38.77,0,0,0,17.52-2,45.2,45.2,0,0,1-12.62,1c-.88,0-1.91-.22-2.23-.86a54,54,0,0,0,9.44-.42A15.4,15.4,0,0,0,92.76,52a24.49,24.49,0,0,1-12.41,2.55,31,31,0,0,0,7.85-2.17c2.38-1.15,4.36-3,4.67-5.18-2.41,3.25-6.91,5.47-11.68,5.77a27.12,27.12,0,0,0,7-3.64c2-1.58,3.25-3.81,2.73-6-.79,3.19-3.8,6-7.67,7.13,2-1.53,4-3.21,4.87-5.32a4.6,4.6,0,0,0-2.16-5.92,3.94,3.94,0,0,1,1.35,4.3,8.67,8.67,0,0,1-2.91,3.95c-2.42,2.07-6,3.72-9.45,3a14.57,14.57,0,0,0,8.93-4.85,14.61,14.61,0,0,1-9.11,2.72,15.18,15.18,0,0,0,4.62-2.09c-1.61-.24-3.27,1.24-4.72.62a1.47,1.47,0,0,1-.85-1.72,5.89,5.89,0,0,1,1-1.81,11.46,11.46,0,0,0,2.1-6.75C71.64,45.9,60.54,53.1,47.85,55c-7.69,1.14-15.37.8-22.34,3.6M60.27,82.72m0,.28"/></svg>